<?xml version="1.0" encoding="UTF-8"?>
<svg id="a" data-name="Ebene 1" xmlns="http://www.w3.org/2000/svg" xmlns:xlink="http://www.w3.org/1999/xlink" viewBox="0 0 254.82 331.08">
  <defs>
    <style>
      .c {
        fill: none;
      }

      .c, .d, .e {
        stroke-width: 0px;
      }

      .f {
        clip-path: url(#b);
      }

      .d {
        fill: #181716;
      }

      .e {
        fill: #fbb900;
      }
    </style>
    <clipPath id="b">
      <rect class="c" x="-37.59" y="38.83" width="330" height="253.42" transform="translate(-38.67 292.24) rotate(-89.76)"/>
    </clipPath>
  </defs>
  <g class="f">
    <path class="e" d="M85.24,137.22l-82.87-.35-.75,177.15,12.3.05,71.33-176.85ZM242.01,80.79c.52-39.79-30.06-75.89-67.49-78.01L2.94,2.05l-.32,75.37,179.45.76.24-.07-91.26,236.29,79.42.34h0c45.71-.95,82.77-37.36,83.37-83.43.48-37.31-23.1-69.31-56.35-81.27,25.99-12.29,44.12-38.57,44.52-69.25"/>
  </g>
  <g>
    <path class="d" d="M41.71,304.19l2.93-7.45c1.36-3.46,2.87-5.84,4.51-7.2,1.88-1.55,3.97-1.78,6.09-.95,2.75,1.08,3.74,3.23,3.67,5.89l.07.03c2.23-2.87,4.99-3.66,8.14-2.42s4.83,3.78,4.79,7.52c-.02,2.03-.57,4.34-1.64,7.06l-2.99,7.59-25.57-10.07ZM55.68,299.78c.9-2.3.7-4.25-1.39-5.08-.81-.32-1.79-.42-2.7.32-.89.71-1.61,2.22-2.19,3.71l-.68,1.73,5.79,2.28,1.17-2.97ZM65.51,304.67c.79-2.01,1.19-3.45,1.17-4.43-.02-1.4-.82-2.16-1.95-2.6-2.23-.88-3.86.27-5.04,3.27l-1.32,3.36,6.32,2.49.82-2.08Z"/>
    <path class="d" d="M49.14,281.17l2.11-5.37,26.98,10.63-2.11,5.37-26.98-10.63Z"/>
    <path class="d" d="M82.85,269.85c.64,1.8.85,3.84-.04,6.1-.79,2.01-2.1,3.25-3.51,3.84-1.61.67-3.41.58-5.99-.44l-10.7-4.21,2.12-5.37,9.89,3.89c1.27.5,2.09.58,2.77.32.71-.25,1.24-.86,1.53-1.6.53-1.34.32-2.98-.16-4.14l-11.62-4.58,2.11-5.37,17.37,6.84-2.09,5.3-1.62-.64-.06.06Z"/>
    <path class="d" d="M87.23,234.2c-1.31-.51-1.99-.54-2.62-.3-.72.29-1.19.84-1.46,1.54-.49,1.24-.35,2.76.1,4,.26.06.54.18.79.27l10.91,4.3-2.11,5.37-10.03-3.95c-1.17-.46-1.94-.56-2.62-.3-.72.29-1.19.84-1.46,1.54-.49,1.23-.32,2.77.08,3.95l11.73,4.62-2.11,5.37-17.37-6.84,2.09-5.3,1.55.61.06-.06c-.6-1.79-.75-3.89.08-6.01.74-1.87,2.33-3.73,4.46-4.08-.92-2.53-.93-4.89-.07-7.08.77-1.94,2.03-3.2,3.5-3.81,1.56-.65,3.27-.55,5.75.43l10.91,4.3-2.11,5.37-10.03-3.95Z"/>
    <path class="d" d="M95.56,221.11c2.64.35,4.51-1.2,5.48-3.67.77-1.94.93-4.32.42-6.65l4.49,1.77c.39,2.11-.11,4.93-1.01,7.23-2.25,5.72-7.45,8.45-12.89,6.31-5.54-2.18-7.45-7.91-5.56-12.71,1.68-4.27,6.09-7.19,11.92-4.89.6.24,1.36.58,1.8.83l-4.65,11.79ZM94.91,212.82c-2-.42-3.67.51-4.35,2.24-.65,1.66-.2,3.51,1.6,4.75l2.75-6.99Z"/>
    <path class="d" d="M91.53,201.74l2.09-5.3,1.59.62.07-.06c-.57-1.78-.76-3.97.1-6.16.72-1.83,2-3.21,3.56-3.86,1.55-.61,3.25-.48,5.76.51l10.84,4.27-2.11,5.37-9.96-3.92c-1.31-.51-2.01-.59-2.67-.36-.71.25-1.17.8-1.46,1.54-.54,1.38-.35,2.96.02,4.21l11.69,4.6-2.11,5.37-17.38-6.84Z"/>
    <path class="d" d="M121.12,175.9c.21,1.02,0,2.78-.59,4.29-.7,1.77-1.91,3.2-3.51,3.84-1.35.53-3.04.56-5.79-.53l-6.39-2.52-1.11,2.82-4.45-1.75,1.11-2.82-4.52-1.78,1.2-5.73,5.44,2.14,1.81-4.59,4.45,1.75-1.81,4.59,5.83,2.3c1.7.67,3.12.78,3.76-.84.35-.88.38-2.01.31-2.86l4.27,1.68Z"/>
    <path class="d" d="M95.97,162.28l2.11-5.37,11.16,4.4.06-.06c-.56-1.69-.75-3.88.11-6.08.72-1.84,2-3.21,3.56-3.86,1.55-.62,3.25-.48,5.75.51l10.84,4.27-2.12,5.37-9.96-3.92c-1.31-.52-2.01-.59-2.67-.36-.71.25-1.17.8-1.47,1.54-.54,1.38-.35,2.96.02,4.21l11.69,4.61-2.11,5.37-26.98-10.63Z"/>
    <path class="d" d="M134.1,141.52c.37,1.45.32,3.43-.46,5.41-.58,1.48-1.49,2.76-2.71,3.58-1.38.92-3.07,1.16-4.87.45-1.91-.75-3.01-2.21-3.37-3.77-.39-1.7-.02-3.56.68-5.36.4-1.03.91-2.01,1.5-2.88l-.67-.26c-.85-.33-1.6-.3-2.1-.05-.65.31-1.3,1.12-1.8,2.39-.76,1.94-.82,3.96-.62,5.63l-4.63-1.82c-.15-1.69.05-4.06,1.05-6.6.92-2.33,2.27-4.21,3.94-5.14,1.58-.89,3.38-.91,5.57-.05l5.9,2.32c.81.32,1.5.22,1.79-.52.11-.28.17-.63.14-.97l4.03,1.59c.08.72-.08,1.76-.49,2.79-.56,1.41-1.49,2.64-2.85,3.2l-.03.07ZM127.98,140.17c-.4.49-.78,1.24-1,1.81-.54,1.38-.66,2.92.68,3.45,1.13.44,2.12-.31,2.61-1.54.36-.92.39-1.93.25-2.71l-2.54-1Z"/>
    <path class="d" d="M111.79,122.12l2.11-5.37,26.98,10.63-2.11,5.37-26.98-10.63Z"/>
    <path class="d" d="M128.98,97.03l-4.01,10.17-4.91-1.93,7.09-18.01h.09s21.42,20.38,21.42,20.38l-2.32,5.9-17.36-16.51Z"/>
  </g>
  <path class="e" d="M232.59,303.56c0-5.72,4.22-9.95,10-9.95s10,4.22,10,9.95-4.22,9.95-10,9.95-10-4.22-10-9.95ZM250.99,303.56c0-4.81-3.48-8.4-8.4-8.4s-8.4,3.58-8.4,8.4,3.48,8.4,8.4,8.4,8.4-3.58,8.4-8.4ZM242.64,305.06h-1.76v3.9h-1.93v-10.8h3.85c2.19,0,4.06,1.23,4.06,3.48,0,1.6-1.02,2.67-2.35,3.16l2.62,4.17h-2.19l-2.3-3.9ZM242.64,303.4c1.34,0,2.25-.59,2.25-1.76s-.91-1.71-2.25-1.71h-1.76v3.48h1.76Z"/>
</svg>